# xmcd
# 
# Track frame offsets:
#     150
#     12297
#     25625
#     39072
#     51935
#     65182
#     77080
#     88705
#     99887
#     114805
#     129440
#     140767
#     153842
#     170150
#     183275
#     201592
#     219145
#     250645
#     268927
#     290150
#     314120
# 
# Disc length: 4269
# 
# Revision: 10
# Processed by: cddbd v1.5.2PL0 Copyright (c) Steve Scherf et al.
# Submitted via: fre:ac v1.0.17
# 
DISCID=2a10ab15
DTITLE=The Temptations - The Ultimate Collection
DYEAR=1997
DGENRE=R&B
TTITLE0=The Way You Do The Things You Do
TTITLE1=My Girl
TTITLE2=It's Growing
TTITLE3=Since I Lost My Baby
TTITLE4=Don't Look Back
TTITLE5=Get Ready
TTITLE6=Ain't Too Proud To Beg
TTITLE7=(I Know) I'm Losing You
TTITLE8=All I Need
TTITLE9=You're My Everything
TTITLE10=Angel Doll
TTITLE11=I Wish It Would Rain
TTITLE12=Cloud Nine
TTITLE13=I Can't Get Next To You
TTITLE14=Ball Of Confusion (That's What The World Is Today)
TTITLE15=Just My Imagination (Running Away With Me)
TTITLE16=Papa Was A Rollin' Stone
TTITLE17=Shakey Ground
TTITLE18=Treat Her Like A Lady
TTITLE19=Error Of Our Ways
TTITLE20=My Girl (A Cappella)
EXTD=YEAR: 1997
EXTT0=
EXTT1=
EXTT2=
EXTT3=
EXTT4=
EXTT5=
EXTT6=
EXTT7=
EXTT8=
EXTT9=
EXTT10=
EXTT11=
EXTT12=
EXTT13=
EXTT14=
EXTT15=
EXTT16=
EXTT17=
EXTT18=
EXTT19=
EXTT20=
PLAYORDER=
